<?xml version="1.0" encoding="iso-8859-1"?>
<!-- Generator: Adobe Illustrator 21.0.0, SVG Export Plug-In . SVG Version: 6.00 Build 0)  -->
<svg xmlns="http://www.w3.org/2000/svg" xmlns:xlink="http://www.w3.org/1999/xlink" version="1.1" id="Capa_1" x="0px" y="0px" viewBox="0 0 512 512" style="enable-background:new 0 0 512 512;" xml:space="preserve" width="512" height="512">
<g>
	<g>
		<path style="fill:#5C5568;" d="M498.787,417.582c7.297,0,13.213-5.928,13.213-13.239v-57.592    c0-59.257-48.115-107.465-107.257-107.465H388.68c-7.297,0-13.213,5.928-13.213,13.239s5.916,13.239,13.213,13.239h16.063    c44.57,0,80.831,36.331,80.831,80.988v57.592C485.574,411.654,491.49,417.582,498.787,417.582z"/>
	</g>
	<path style="fill:#5C5568;" d="M172.555,512c14.521,0,42.173,0,42.173,0c13.745,0,5.794-20.147,0.186-43.591   c-5.608-23.444-17.872-166.226-17.872-166.226l-63.092-23.875c0,0,36.497,174.707,38.948,188.105S158.034,512,172.555,512z"/>
	<path style="fill:#5C5568;" d="M276.26,512h43.096c4.221,0,9.912-13.003,9.695-29.36c-0.424-31.936,38.626-177.535,38.626-177.535   l-83.863-7.555c0,0,18.852,79.088,18.526,99.56c-0.326,20.472-13.949,74.414-13.984,74.496C282.098,488.821,266.631,512,276.26,512   z"/>
	<path style="fill:#837A91;" d="M0,67.694l0,29.518c0,15.821,32.492,25.848,48.247,38.213   c43.735,34.325-2.897,116.985,9.061,154.915c17.1,54.238,13.934,175.468,13.934,175.468C71.195,466.159,45.484,512,66.447,512   h39.92c15.453,0,7.061-32.896,7.061-32.896l13.8-107.398c3.606-21.96,6.312-48.626,47.903-43.272   c69.035,8.887,129.288-16.106,129.288-16.106c1.263-0.047,24.112,58.164,39.49,66.858c15.378,8.694,59.235,9.424,74.712,23.672   c15.994,14.724-2.396,103.203-2.396,103.203c-0.748,3.022,1.52,5.939,4.618,5.939h39.181c2.628,0,4.759-2.131,4.759-4.759V403.316   c0-41.722-38.129-45.367-38.129-77.303v-41.742c0-38.882-28.868-71.708-67.36-76.593l-109.753-13.939   c-47.18-5.992-87.206-37.587-104.062-82.143L135.153,84.3c-12.085-31.943-41.538-54.028-75.588-56.677l0,0   C31.646,25.451,20.768,50.74,19.597,51.879C17.012,51.879,0,52.282,0,67.694z"/>
	<g>
		<path style="fill:#6B6477;" d="M426.654,326.013v-41.742c0-38.882-28.868-71.708-67.36-76.593l-109.753-13.939    c-47.18-5.992-87.206-37.587-104.062-82.143L135.153,84.3c-12.085-31.943-41.538-54.028-75.588-56.677h0    c-6.471-0.504-12.015,0.479-16.746,2.283c27.886,6.837,51.056,26.977,61.428,54.393l10.326,27.296    c16.856,44.556,56.882,76.151,104.062,82.143l109.753,13.939c38.491,4.885,67.36,37.711,67.36,76.593v41.742    c0,31.936,47.985,41.762,47.985,91.569c0,59.907-9.856,89.659-9.856,89.659c0,2.628-2.131,4.759-4.759,4.759h30.905    c2.628,0,4.759-2.131,4.759-4.759V403.316C464.783,361.594,426.654,357.949,426.654,326.013z"/>
	</g>
	<path style="fill:#F2F0F0;" d="M84.616,7.362L78.92,33.445c-3.663,16.771,7.389,34.14,25.472,40.034l6.823,2.224   c5.992,1.953,12.028-2.862,11.47-9.151l-3.175-35.818C117.812,2.387,89.897-8.6,84.616,7.362z"/>
</g>















</svg>
