<svg height="512pt" viewBox="-5 0 512 512" width="512pt" xmlns="http://www.w3.org/2000/svg"><path d="m74.675781 273.65625-73.382812-73.386719c-1.167969-1.167969-1.585938-2.890625-1.082031-4.464843.503906-1.574219 1.847656-2.734376 3.476562-3.007813l36.023438-6.003906c5.355468-.890625 10.820312.730469 14.824218 4.394531l99.753906 91.296875zm0 0" fill="#cf976a"/><path d="m427.78125 273.65625 73.382812-73.386719c1.167969-1.167969 1.585938-2.890625 1.082032-4.464843-.503906-1.574219-1.847656-2.734376-3.480469-3.007813l-35.976563-5.996094c-5.378906-.898437-10.871093.742188-14.878906 4.441407l-108.40625 100.066406zm0 0" fill="#cf976a"/><path d="m400.945312 101.605469c27.851563 49.359375 22.335938 110.785156-13.859374 154.394531-.296876.433594-.621094.847656-.972657 1.234375l-25.160156 25.25h-206.652344l-37.957031-25.25c-.351562-.386719-.675781-.800781-.972656-1.234375-6.234375-7.410156-11.625-15.492188-16.066406-24.097656v-.089844c-21.828126-40.832031-20.992188-90.050781 2.207031-130.117188v-.089843c-5.824219-15.359375-35.046875-101.605469-9.179688-101.605469 27.363281 0 61.175781 17.65625 81.742188 36.371094 5.121093-2.386719 10.417969-4.503906 15.890625-6.445313 8.421875-2.988281 17.070312-5.289062 25.863281-6.886719 6.789063-1.390624 13.660156-2.335937 20.570313-2.824218 4.855468-.441406 9.796874-.617188 14.828124-.617188s9.976563.175782 14.832032.617188c6.910156.488281 13.78125 1.433594 20.566406 2.824218 8.792969 1.597657 17.445312 3.898438 25.867188 6.886719 5.472656 1.941407 10.769531 4.058594 15.890624 6.445313 20.566407-18.714844 54.375-36.371094 81.742188-36.371094 25.863281 0-3.355469 86.246094-9.179688 101.605469zm0 0" fill="#95a5a5"/><path d="m409.417969 119.261719c.441406 5.824219.707031 11.652343.707031 17.566406.886719 55.683594-22.742188 108.941406-64.617188 145.65625h-188.558593c-41.875-36.714844-65.503907-89.972656-64.617188-145.65625 0-5.914063.265625-11.742187.707031-17.566406 2.390626-6.054688 5.226563-11.925781 8.472657-17.566407v-.089843c-.882813-2.296875-2.207031-6.089844-3.882813-10.945313-9.359375-28.074218-27.367187-90.660156-5.296875-90.660156 15.429688.636719 30.539063 4.582031 44.3125 11.5625 13.601563 6.433594 26.207031 14.785156 37.429688 24.808594 5.121093-2.386719 10.417969-4.503906 15.890625-6.445313 8.421875-2.988281 17.070312-5.289062 25.863281-6.886719 6.789063-1.390624 13.660156-2.335937 20.570313-2.824218 4.855468-.441406 9.796874-.617188 14.828124-.617188s9.976563.175782 14.832032.617188c6.910156.488281 13.78125 1.433594 20.566406 2.824218 8.792969 1.597657 17.445312 3.898438 25.867188 6.886719 5.472656 1.941407 10.769531 4.058594 15.890624 6.445313 11.21875-10.023438 23.824219-18.375 37.425782-24.808594 13.773437-6.980469 28.886718-10.925781 44.316406-11.5625 22.070312 0 4.058594 62.585938-5.296875 90.660156-1.675781 4.855469-3 8.648438-3.882813 10.945313 3.265626 5.664062 6.097657 11.566406 8.472657 17.65625zm0 0" fill="#bdc3c7"/><path d="m387.085938 256c-.296876.433594-.621094.847656-.972657 1.234375l-25.160156 25.25h-206.652344l-37.957031-25.25c-.351562-.386719-.675781-.800781-.972656-1.234375zm0 0" fill="#95a5a5"/><path d="m427.78125 273.65625v220.6875c-.03125 9.738281-7.917969 17.628906-17.65625 17.65625h-317.792969c-9.738281-.027344-17.628906-7.917969-17.65625-17.65625v-220.6875zm0 0" fill="#cb8252"/><path d="m99.304688 18.097656c20.738281 3.957032 40.195312 12.925782 56.671874 26.128906-16.363281 10.003907-30.78125 22.894532-42.546874 38.046876-7.46875-20.691407-12.214844-42.261719-14.125-64.175782zm0 0" fill="#ff5364"/><path d="m403.152344 18.097656c-1.910156 21.914063-6.65625 43.484375-14.125 64.175782-11.765625-15.152344-26.183594-28.042969-42.550782-38.046876 16.476563-13.203124 35.933594-22.171874 56.675782-26.128906zm0 0" fill="#ff5364"/><path d="m215.917969 282.484375c0 19.242187-14.742188 30.101563-35.3125 33.808594-.617188.085937-1.144531.175781-1.765625.265625-2.925782 6.125-9.097656 10.035156-15.886719 10.0625-4.683594.023437-9.175781-1.855469-12.449219-5.207032-1.445312-1.386718-2.613281-3.035156-3.441406-4.855468-.617188-.089844-1.148438-.179688-1.765625-.265625-20.566406-3.707031-35.308594-14.566407-35.308594-33.808594.019531-2.96875.347657-5.925781.96875-8.828125 1.246094-5.578125 3.394531-10.914062 6.355469-15.800781 9.253906-16.738281 26.535156-27.46875 45.640625-28.339844 25.222656 1.5 46.417969 19.492187 51.992187 44.140625.625 2.902344.949219 5.859375.972657 8.828125zm0 0" fill="#7f8c8d"/><path d="m162.953125 335.449219c-14.621094-.015625-26.46875-11.863281-26.484375-26.484375v-8.828125c0-4.875 3.953125-8.828125 8.828125-8.828125s8.828125 3.953125 8.828125 8.828125v8.828125c0 4.875 3.953125 8.828125 8.828125 8.828125s8.828125-3.953125 8.828125-8.828125v-8.828125c0-4.875 3.949219-8.828125 8.824219-8.828125 4.878906 0 8.828125 3.953125 8.828125 8.828125v8.828125c-.015625 14.621094-11.863282 26.46875-26.480469 26.484375zm0 0" fill="#547580"/><path d="m392.46875 282.484375c0 19.242187-14.742188 30.101563-35.308594 33.808594-.621094.085937-1.148437.175781-1.765625.265625-2.929687 6.125-9.101562 10.035156-15.890625 10.0625-4.683594.023437-9.175781-1.855469-12.445312-5.207032-1.449219-1.386718-2.617188-3.035156-3.445313-4.855468-.617187-.089844-1.148437-.179688-1.765625-.265625-20.566406-3.707031-35.308594-14.566407-35.308594-33.808594.023438-2.96875.347657-5.925781.96875-8.828125 1.246094-5.578125 3.394532-10.914062 6.355469-15.800781 9.253907-16.738281 26.535157-27.46875 45.640625-28.339844 25.222656 1.5 46.417969 19.492187 51.996094 44.140625.621094 2.902344.945312 5.859375.96875 8.828125zm0 0" fill="#7f8c8d"/><path d="m339.503906 335.449219c-14.621094-.015625-26.46875-11.863281-26.484375-26.484375v-8.828125c0-4.875 3.953125-8.828125 8.828125-8.828125s8.828125 3.953125 8.828125 8.828125v8.828125c0 4.875 3.953125 8.828125 8.828125 8.828125s8.828125-3.953125 8.828125-8.828125v-8.828125c0-4.875 3.953125-8.828125 8.828125-8.828125s8.828125 3.953125 8.828125 8.828125v8.828125c-.019531 14.621094-11.863281 26.46875-26.484375 26.484375zm0 0" fill="#547580"/><g fill="#a56a43"><path d="m118.8125 485.515625v26.484375h-17.652344v-26.484375c0-4.875 3.949219-8.824219 8.828125-8.824219 4.875 0 8.824219 3.949219 8.824219 8.824219zm0 0"/><path d="m154.125 485.515625v26.484375h-17.65625v-26.484375c0-4.875 3.953125-8.824219 8.828125-8.824219s8.828125 3.949219 8.828125 8.824219zm0 0"/><path d="m189.433594 485.515625v26.484375h-17.652344v-26.484375c0-4.875 3.949219-8.824219 8.824219-8.824219 4.878906 0 8.828125 3.949219 8.828125 8.824219zm0 0"/><path d="m224.746094 485.515625v26.484375h-17.65625v-26.484375c0-4.875 3.953125-8.824219 8.828125-8.824219s8.828125 3.949219 8.828125 8.824219zm0 0"/><path d="m260.054688 485.515625v26.484375h-17.65625v-26.484375c0-4.875 3.953124-8.824219 8.828124-8.824219s8.828126 3.949219 8.828126 8.824219zm0 0"/><path d="m295.367188 485.515625v26.484375h-17.65625v-26.484375c0-4.875 3.953124-8.824219 8.828124-8.824219s8.828126 3.949219 8.828126 8.824219zm0 0"/><path d="m330.675781 485.515625v26.484375h-17.65625v-26.484375c0-4.875 3.953125-8.824219 8.828125-8.824219s8.828125 3.949219 8.828125 8.824219zm0 0"/><path d="m365.988281 485.515625v26.484375h-17.65625v-26.484375c0-4.875 3.953125-8.824219 8.828125-8.824219s8.828125 3.949219 8.828125 8.824219zm0 0"/><path d="m401.296875 485.515625v26.484375h-17.65625v-26.484375c0-4.875 3.953125-8.824219 8.828125-8.824219s8.828125 3.949219 8.828125 8.824219zm0 0"/></g><path d="m207.089844 123.585938c-2.324219.003906-4.554688-.914063-6.207032-2.546876-13.199218-10.613281-29.84375-15.992187-46.757812-15.109374-4.875 0-8.828125-3.949219-8.828125-8.828126 0-4.875 3.953125-8.824218 8.828125-8.824218 21.578125-.9375 42.714844 6.289062 59.207031 20.238281 2.523438 2.527344 3.277344 6.324219 1.910157 9.621094-1.363282 3.296875-4.582032 5.449219-8.152344 5.449219zm0 0" fill="#95a5a5"/><path d="m295.378906 123.546875c-3.5625.003906-6.777344-2.136719-8.144531-5.425781-1.371094-3.289063-.625-7.078125 1.890625-9.605469 16.488281-13.949219 37.628906-21.175781 59.207031-20.238281 4.875 0 8.828125 3.949218 8.828125 8.824218 0 4.878907-3.953125 8.828126-8.828125 8.828126-16.921875-.886719-33.574219 4.496093-46.773437 15.117187-1.65625 1.605469-3.871094 2.503906-6.179688 2.5zm0 0" fill="#95a5a5"/><path d="m215.917969 220.691406c-9.449219.273438-18.589844-3.355468-25.273438-10.039062-6.683593-6.683594-10.3125-15.824219-10.039062-25.273438 0-4.875 3.953125-8.828125 8.828125-8.828125s8.828125 3.953125 8.828125 8.828125c-.308594 4.769532 1.453125 9.441406 4.832031 12.824219 3.382812 3.378906 8.054688 5.140625 12.824219 4.832031 19.207031 0 26.675781-28.359375 26.746093-28.648437 1.191407-4.726563 5.988282-7.597657 10.71875-6.410157 4.726563 1.191407 7.597657 5.988282 6.40625 10.71875-.425781 1.714844-10.875 41.996094-43.871093 41.996094zm0 0" fill="#95a5a5"/><path d="m286.539062 220.691406c-32.996093 0-43.445312-40.28125-43.875-41.996094-1.1875-4.730468 1.683594-9.527343 6.410157-10.71875 4.730469-1.1875 9.527343 1.683594 10.714843 6.410157.070313.289062 7.542969 28.648437 26.75 28.648437 4.769532.308594 9.441407-1.453125 12.820313-4.832031 3.382813-3.382813 5.140625-8.054687 4.835937-12.824219 0-4.875 3.949219-8.828125 8.824219-8.828125s8.828125 3.953125 8.828125 8.828125c.277344 9.449219-3.351562 18.589844-10.035156 25.273438s-15.828125 10.3125-25.273438 10.039062zm0 0" fill="#95a5a5"/><path d="m268.882812 44.136719c0 24.367187-7.945312 44.140625-17.65625 44.140625-9.710937 0-17.652343-19.773438-17.652343-44.140625-.050781-8.058594.898437-16.09375 2.824219-23.921875 4.855468-.441406 9.796874-.617188 14.828124-.617188s9.976563.175782 14.832032.617188c1.925781 7.828125 2.871094 15.863281 2.824218 23.921875zm0 0" fill="#35495e"/><path d="m215.828125 23.039062c-.792969 21.804688-6.355469 38.753907-13.152344 38.753907-6.089843 0-11.121093-13.507813-12.710937-31.867188 8.421875-2.988281 17.070312-5.289062 25.863281-6.886719zm0 0" fill="#35495e"/><path d="m312.492188 29.925781c-1.589844 18.359375-6.621094 31.867188-12.710938 31.867188-6.800781 0-12.359375-16.949219-13.15625-38.753907 8.792969 1.597657 17.445312 3.898438 25.867188 6.886719zm0 0" fill="#35495e"/><path d="m283.007812 157.925781-17.65625 18.890625c-7.921874 7.503906-20.328124 7.503906-28.246093 0l-17.65625-18.890625c-2.902344-2.84375-4.105469-6.992187-3.179688-10.945312 2.386719-7.414063 9.535157-12.230469 17.304688-11.652344h35.308593c7.765626-.578125 14.917969 4.238281 17.300782 11.652344.929687 3.953125-.277344 8.101562-3.175782 10.945312zm0 0" fill="#df4d60"/><path d="m286.183594 146.980469c-.636719 1.585937-1.746094 2.941406-3.175782 3.882812l-17.65625 12.976563c-8.695312 5.207031-19.550781 5.207031-28.246093 0l-17.65625-12.976563c-1.429688-.941406-2.539063-2.296875-3.179688-3.882812 2.386719-7.414063 9.535157-12.230469 17.304688-11.652344h35.308593c7.765626-.578125 14.917969 4.238281 17.300782 11.652344zm0 0" fill="#ff5364"/><path d="m277.710938 145.65625c0-4.875-11.855469-8.828125-26.484376-8.828125-14.625 0-26.480468 3.953125-26.480468 8.828125s11.855468 8.828125 26.480468 8.828125c14.628907 0 26.484376-3.953125 26.484376-8.828125zm0 0" fill="#fb7b76"/></svg>