<svg height="512" viewBox="0 0 128 128" width="512" xmlns="http://www.w3.org/2000/svg"><g><path d="m93.966 115.242-3.9-90.652a6.011 6.011 0 0 1 .018-.794l1.546-17.296h-82.788l1.551 17.3a6.011 6.011 0 0 1 .018.794l-3.9 90.652a6 6 0 0 0 5.989 6.254h75.472a6 6 0 0 0 5.994-6.258z" fill="#6aa8fb"/><path d="m91.63 6.5-1.55 17.3c-.01.13-.01.26-.01.39h-79.66a1.673 1.673 0 0 0 -.02-.39l-1.55-17.3z" fill="#5c91d9"/><path d="m15.063 57.781h-.076a1.752 1.752 0 0 1 -1.674-1.824l.352-8.146a1.75 1.75 0 1 1 3.5.15l-.351 8.146a1.751 1.751 0 0 1 -1.751 1.674z" fill="#5c91d9"/><g><path d="m68.378 53.541c-9.195 1.025-15.778 11.827-15.778 11.827l9.806 7.88c8.145-6.179 5.972-19.707 5.972-19.707z" fill="#c9c9ce"/><path d="m32.094 53.541c9.2 1.025 15.776 11.827 15.776 11.827l-9.8 7.88c-8.149-6.179-5.976-19.707-5.976-19.707z" fill="#c9c9ce"/><path d="m67.216 73.25c0 16.75-11.23 23.71-16.98 23.71s-16.98-6.96-16.98-23.71c0-10.17 7.6-13.1 16.98-13.1s16.98 2.93 16.98 13.1z" fill="#eaeaf0"/><g fill="#c9c9ce"><path d="m52.847 83.855c0 1.094-1.169 2.9-2.611 2.9s-2.611-1.81-2.611-2.9 1.169-1.281 2.611-1.281 2.611.186 2.611 1.281z"/><g><circle cx="43.432" cy="72.229" r="3"/><circle cx="57.04" cy="72.229" r="3"/></g><g><path d="m37.994 82.13a1.716 1.716 0 0 1 -.3-.026l-9.464-1.639a1.75 1.75 0 1 1 .6-3.448l9.465 1.639a1.75 1.75 0 0 1 -.3 3.474z"/><path d="m29.706 91.273a1.751 1.751 0 0 1 -.738-3.338l8.387-3.892a1.75 1.75 0 0 1 1.474 3.175l-8.387 3.892a1.741 1.741 0 0 1 -.736.163z"/></g><g><path d="m62.478 82.13a1.75 1.75 0 0 1 -.3-3.474l9.465-1.639a1.75 1.75 0 1 1 .6 3.448l-9.464 1.635a1.716 1.716 0 0 1 -.301.03z"/><path d="m70.767 91.273a1.741 1.741 0 0 1 -.736-.163l-8.387-3.892a1.75 1.75 0 0 1 1.473-3.175l8.383 3.892a1.75 1.75 0 0 1 -.737 3.338z"/></g></g></g><path d="m77.069 17.1h-53.669a1.75 1.75 0 0 1 0-3.5h53.669a1.75 1.75 0 0 1 0 3.5z" fill="#eaeaf0"/><path d="m113.9 106.93a9.814 9.814 0 0 0 -6.63-7.85 7.5 7.5 0 0 0 -10.2-3.268 9.786 9.786 0 0 0 -11.67 2.815c-.273-.023-.547-.042-.826-.042a9.811 9.811 0 0 0 -9.674 8.215 7.511 7.511 0 0 0 2.162 14.7h34.288a7.508 7.508 0 0 0 2.551-14.57z" fill="#5b362a"/><path d="m121.5 121.5-2.26-10.929a2.847 2.847 0 0 0 -2.789-2.271h-44.493a2.848 2.848 0 0 0 -2.789 2.271l-2.26 10.929z" fill="#eaeaf0"/></g></svg>