<svg id="Capa_1" enable-background="new 0 0 510 510" height="512" viewBox="0 0 510 510" width="512" xmlns="http://www.w3.org/2000/svg" xmlns:xlink="http://www.w3.org/1999/xlink"><linearGradient id="lg1"><stop offset="0" stop-color="#f8f6f7"/><stop offset="1" stop-color="#d1ceeb"/></linearGradient><linearGradient id="SVGID_1_" gradientUnits="userSpaceOnUse" x1="88" x2="309.653" xlink:href="#lg1" y1="256.741" y2="256.741"/><linearGradient id="SVGID_2_" gradientUnits="userSpaceOnUse" x1="51" x2="181" xlink:href="#lg1" y1="91.535" y2="91.535"/><linearGradient id="lg2"><stop offset="0" stop-color="#f8f6f7"/><stop offset=".1788" stop-color="#f8f6f7"/><stop offset="1" stop-color="#e7e6f5"/></linearGradient><linearGradient id="SVGID_3_" gradientUnits="userSpaceOnUse" x1="105.753" x2="413.369" xlink:href="#lg2" y1="170.717" y2="170.717"/><linearGradient id="SVGID_4_" gradientUnits="userSpaceOnUse" x1="134" x2="437.106" xlink:href="#lg1" y1="170.717" y2="170.717"/><linearGradient id="SVGID_5_" gradientUnits="userSpaceOnUse" x1="62" x2="318.564" xlink:href="#lg2" y1="255" y2="255"/><linearGradient id="SVGID_6_" gradientUnits="userSpaceOnUse" x1="179" x2="482.106" xlink:href="#lg1" y1="255.001" y2="255.001"/><linearGradient id="SVGID_7_" gradientUnits="userSpaceOnUse" x1="105.753" x2="413.369" xlink:href="#lg2" y1="339.283" y2="339.283"/><linearGradient id="SVGID_8_" gradientUnits="userSpaceOnUse" x1="134" x2="437.106" xlink:href="#lg1" y1="339.285" y2="339.285"/><linearGradient id="lg3"><stop offset="0" stop-color="#b0e7c9"/><stop offset=".593" stop-color="#46cc8d"/><stop offset="1" stop-color="#0ab69f"/></linearGradient><linearGradient id="SVGID_9_" gradientUnits="userSpaceOnUse" x1="1.602" x2="542.603" xlink:href="#lg3" y1="465.898" y2="465.898"/><linearGradient id="lg4"><stop offset="0" stop-color="#46cc8d"/><stop offset=".5484" stop-color="#0ab69f"/><stop offset="1" stop-color="#01998d"/></linearGradient><linearGradient id="SVGID_10_" gradientUnits="userSpaceOnUse" x1="175.121" x2="379.309" xlink:href="#lg4" y1="465.898" y2="465.898"/><linearGradient id="SVGID_11_" gradientUnits="userSpaceOnUse" x1="261.5" x2="479.09" y1="132.534" y2="132.534"><stop offset="0" stop-color="#537983"/><stop offset=".593" stop-color="#554e56"/><stop offset="1" stop-color="#433f43"/></linearGradient><linearGradient id="lg5"><stop offset="0" stop-color="#fe646f"/><stop offset=".593" stop-color="#fb2b3a"/><stop offset="1" stop-color="#c41926"/></linearGradient><linearGradient id="SVGID_12_" gradientUnits="userSpaceOnUse" x1="387.259" x2="523.151" xlink:href="#lg5" y1="255" y2="255"/><linearGradient id="SVGID_13_" gradientUnits="userSpaceOnUse" x1="347.778" x2="510.332" xlink:href="#lg5" y1="255" y2="255"/><linearGradient id="SVGID_14_" gradientUnits="userSpaceOnUse" x1="84.094" x2="448.975" xlink:href="#lg3" y1="44.102" y2="44.102"/><linearGradient id="SVGID_15_" gradientUnits="userSpaceOnUse" x1="92.107" x2="296.295" xlink:href="#lg4" y1="44.102" y2="44.102"/><g><path d="m144.596 68.128h220.808v377.226h-220.808z" fill="url(#SVGID_1_)"/><path d="m144.6 68.13h220.8v46.81h-220.8z" fill="url(#SVGID_2_)"/><path d="m388.12 111.814c-.22-.295-.44-.591-.661-.886-16.656-22.356-48.37-29.242-73.669-16.047-48.239 25.161-100.293 42.171-154.643 50.536-28.504 4.387-48.999 28.335-47.575 55.668.019.361.038.723.056 1.084 1.669 32.054 32.419 55.499 65.845 50.35 67.263-10.361 131.836-31.463 191.542-62.594 29.671-15.471 38.638-51.894 19.105-78.111z" fill="url(#SVGID_3_)"/><path d="m388.12 111.812c-.22-.29-.44-.59-.66-.89-15.08-20.22-42.47-27.79-66.3-19.26 10.29 3.67 19.52 10.19 26.28 19.26.22.3.44.6.66.89 19.53 26.22 10.57 62.64-19.1 78.11-55.93 29.16-116.13 49.52-178.81 60.5 8.47 2.71 17.77 3.56 27.28 2.1 67.27-10.37 131.84-31.47 191.55-62.6 29.67-15.47 38.63-51.89 19.1-78.11z" fill="url(#SVGID_4_)"/><path d="m388.12 196.097c-.22-.296-.44-.591-.661-.886-16.656-22.356-48.37-29.242-73.669-16.047-48.239 25.161-100.293 42.171-154.643 50.536-28.504 4.387-48.999 28.335-47.575 55.668.019.361.038.723.056 1.084 1.669 32.054 32.419 55.499 65.845 50.35 67.263-10.361 131.836-31.463 191.542-62.594 29.671-15.47 38.638-51.894 19.105-78.111z" fill="url(#SVGID_5_)"/><path d="m388.12 196.096c-.22-.29-.44-.59-.66-.89-15.08-20.22-42.47-27.79-66.3-19.26 10.29 3.67 19.52 10.19 26.28 19.26.22.3.44.6.66.89 19.53 26.22 10.57 62.64-19.1 78.11-55.93 29.16-116.13 49.52-178.81 60.5 8.47 2.71 17.77 3.56 27.28 2.1 67.27-10.37 131.84-31.47 191.55-62.6 29.67-15.47 38.63-51.89 19.1-78.11z" fill="url(#SVGID_6_)"/><path d="m388.12 280.381c-.22-.295-.44-.591-.661-.886-16.656-22.356-48.37-29.242-73.669-16.047-48.239 25.161-100.293 42.171-154.643 50.536-28.504 4.387-48.999 28.335-47.575 55.668.019.361.038.723.056 1.084 1.669 32.054 32.419 55.499 65.845 50.35 67.263-10.361 131.836-31.463 191.542-62.594 29.671-15.471 38.638-51.895 19.105-78.111z" fill="url(#SVGID_7_)"/><path d="m388.12 280.38c-.22-.29-.44-.59-.66-.89-15.08-20.22-42.47-27.79-66.3-19.26 10.29 3.67 19.52 10.19 26.28 19.26.22.3.44.6.66.89 19.53 26.22 10.57 62.64-19.1 78.11-55.93 29.16-116.13 49.52-178.81 60.5 8.47 2.71 17.77 3.56 27.28 2.1 67.27-10.37 131.84-31.47 191.55-62.6 29.67-15.47 38.63-51.89 19.1-78.11z" fill="url(#SVGID_8_)"/><g><path d="m478.077 510h-446.154c-17.631 0-31.923-14.292-31.923-31.923v-24.359c0-17.63 14.292-31.923 31.923-31.923h446.154c17.63 0 31.923 14.292 31.923 31.923v24.359c0 17.631-14.292 31.923-31.923 31.923z" fill="url(#SVGID_9_)"/><path d="m478.077 421.796h-41.025c17.63 0 31.923 14.292 31.923 31.923v24.359c0 17.63-14.292 31.923-31.923 31.923h41.025c17.63 0 31.923-14.292 31.923-31.923v-24.359c0-17.631-14.292-31.923-31.923-31.923z" fill="url(#SVGID_10_)"/></g><path d="m479.09 265.068h-25c0-25.08-4.87-49.55-14.47-72.72s-23.45-43.91-41.19-61.64l-104.4-104.4c-1.81-1.82-3.79-1.38-4.81-.96-1.01.42-2.72 1.51-2.72 4.08v13.6h-25v-13.6c0-11.94 7.13-22.61 18.16-27.18 11.03-4.56 23.61-2.06 32.05 6.38l104.4 104.4c20.07 20.07 35.75 43.54 46.61 69.76s16.37 53.9 16.37 82.28z" fill="url(#SVGID_11_)"/><g><circle cx="448.63" cy="255" fill="url(#SVGID_12_)" r="61.37"/><path d="m448.63 193.63c-7.009 0-13.736 1.191-20.01 3.355 24.065 8.3 41.36 31.131 41.36 58.016s-17.295 49.716-41.36 58.016c6.274 2.164 13.001 3.355 20.01 3.355 33.894 0 61.37-27.476 61.37-61.37 0-33.896-27.476-61.372-61.37-61.372z" fill="url(#SVGID_13_)"/></g><g><path d="m395.063 88.204h-280.126c-17.63 0-31.923-14.292-31.923-31.923v-24.358c0-17.631 14.292-31.923 31.923-31.923h280.127c17.63 0 31.923 14.292 31.923 31.923v24.359c-.001 17.63-14.293 31.922-31.924 31.922z" fill="url(#SVGID_14_)"/><path d="m395.063 0h-41.025c17.63 0 31.923 14.292 31.923 31.923v24.359c0 17.63-14.292 31.923-31.923 31.923h41.025c17.63 0 31.923-14.292 31.923-31.923v-24.359c0-17.631-14.292-31.923-31.923-31.923z" fill="url(#SVGID_15_)"/></g></g></svg>