<svg height="512" viewBox="0 0 57 58" width="512" xmlns="http://www.w3.org/2000/svg"><g id="Page-1" fill="none" fill-rule="evenodd"><g id="033---Cat-Toy" fill-rule="nonzero"><path id="Shape" d="m44.31.12h.01c.2174761-.08104559.4479196-.12171211.68-.12h3c3.3137085 0 6 2.6862915 6 6v17c-.0044086 3.8641657-3.1358343 6.9955914-7 7h-8c-1.6568542 0-3 1.3431458-3 3s1.3431458 3 3 3h11c3.8641657.0044086 6.9955914 3.1358343 7 7v8c-.0044086 3.8641657-3.1358343 6.9955914-7 7h-8l.64-4h7.36c1.6548028-.0049422 2.9950578-1.3451972 3-3v-8c-.0049422-1.6548028-1.3451972-2.9950578-3-3h-11c-3.8659932 0-7-3.1340068-7-7s3.1340068-7 7-7h8c1.6548028-.0049422 2.9950578-1.3451972 3-3v-17c-.0032948-1.10320187-.8967981-1.9967052-2-2h-1.7z" fill="#f29c1f"/><path id="Shape" d="m45.6.879c-.5626237-.56271905-1.3257625-.87885933-2.1215-.87885933s-1.5588763.31614028-2.1215.87885933l-26.165 26.163 1.959 3.958 2.284.284 26.165-26.163c1.1711458-1.17149955 1.1711458-3.07050045 0-4.242z" fill="#f0c419"/><path id="Shape" d="m43 58h-33c.4214398-1.2144765.7687455-2.453423 1.04-3.71 1.2999691-1.5537126 3.0230296-2.6966297 4.96-3.29 1.0062148-.3588497 2.0551697-.584106 3.12-.67.38-1.7 6.13-3.44 6.31-2.92 2.0470935-.9846633 4.2991429-1.4679798 6.57-1.41 12 0 11 12 11 12z" fill="#95a5a5"/><path id="Shape" d="m20.14 34.82-1.41 1.41-1.42 1.42-1.41 1.41-1.42 1.42-4.24 4.24c-2.34990634 2.3093156-6.12233347 2.2917719-8.45065961-.0392999s-2.34142387-6.103517-.02934039-8.4507001l4.24-4.24 1.42-1.41 1.41-1.41 1.42-1.42 1.41-1.42c.3751365-.3755541.8841815-.5865733 1.415-.5865733s1.0398635.2110192 1.415.5865733l5.65 5.66c.3755541.3751365.5865733.8841815.5865733 1.415s-.2110192 1.0398635-.5865733 1.415z" fill="#955ba5"/><g fill="#894b9d"><path id="Shape" d="m14.49 33.41c-.1911916.1834154-.4450715.2871128-.71.29-.2652977-.0010428-.519836-.1050091-.71-.29l-4.24-4.24 1.42-1.42 4.24 4.24c.3899779.3930079.3899779 1.0269921 0 1.42z"/><path id="Shape" d="m18.73 36.23-1.42 1.42-1.41-1.42c-.2853762-.2443899-.4096819-.6281184-.3218101-.993419.0878718-.3653005.3730906-.6505193.7383911-.7383911.3653006-.0878718.7490291.0364339.993419.3218101z"/><path id="Shape" d="m9.54 34.11c-.18770371.1899246-.442981.2977883-.71.3-.26742952-.0002088-.52344637-.1083849-.71-.3l-2.12-2.12 1.42-1.41 2.12 2.12c.38772359.3900375.38772359 1.0199625 0 1.41z"/><path id="Shape" d="m15.9 39.06-1.42 1.42-3.53-3.54c-.3397768-.3967603-.3169323-.9881942.0524368-1.3575632.369369-.3693691.9608029-.3922136 1.3575632-.0524368z"/></g><path id="Shape" d="m19.12 50.33c.38-1.7 1.65-5.94 4.88-4.33.6462683.2595144 1.1614094.7674507 1.43 1.41.45 1.229-.513 2.634-1.357 3.563-.5749763.6394198-1.4927625.8427472-2.284.506z" fill="#fb7b76"/><circle id="Oval" cx="10" cy="56" fill="#fb7b76" r="2"/></g></g></svg>